<?xml version="1.0" encoding="UTF-8" standalone="no"?>
<!-- Created with Inkscape (http://www.inkscape.org/) -->

<svg
   width="32"
   height="32"
   id="svg13965"
   sodipodi:version="0.32"
   inkscape:version="1.4.2 (ebf0e940d0, 2025-05-08)"
   version="1.0"
   sodipodi:docname="start-here-kde.svg"
   inkscape:output_extension="org.inkscape.output.svg.inkscape"
   xmlns:inkscape="http://www.inkscape.org/namespaces/inkscape"
   xmlns:sodipodi="http://sodipodi.sourceforge.net/DTD/sodipodi-0.dtd"
   xmlns:xlink="http://www.w3.org/1999/xlink"
   xmlns="http://www.w3.org/2000/svg"
   xmlns:svg="http://www.w3.org/2000/svg"
   xmlns:rdf="http://www.w3.org/1999/02/22-rdf-syntax-ns#"
   xmlns:cc="http://creativecommons.org/ns#"
   xmlns:dc="http://purl.org/dc/elements/1.1/">
  <defs
     id="defs13967">
    <linearGradient
       id="linearGradient3936">
      <stop
         style="stop-color:#ffffff;stop-opacity:1;"
         offset="0"
         id="stop3938" />
      <stop
         id="stop25033"
         offset="0.57999998"
         style="stop-color:#ffffff;stop-opacity:0.41891134;" />
      <stop
         style="stop-color:#000000;stop-opacity:0;"
         offset="1"
         id="stop3940" />
    </linearGradient>
    <radialGradient
       inkscape:collect="always"
       xlink:href="#linearGradient3936"
       id="radialGradient13963"
       gradientUnits="userSpaceOnUse"
       gradientTransform="matrix(4.1749873e-7,0.61913603,-0.44677519,2.4175076e-7,323.73419,-371.49255)"
       cx="621.12109"
       cy="758.49609"
       fx="621.12109"
       fy="758.49609"
       r="31.573921" />
    <linearGradient
       id="linearGradient3926">
      <stop
         style="stop-color:#041526;stop-opacity:1;"
         offset="0"
         id="stop3928" />
      <stop
         style="stop-color:#004a7c;stop-opacity:1;"
         offset="1"
         id="stop3930" />
    </linearGradient>
    <radialGradient
       inkscape:collect="always"
       xlink:href="#linearGradient3926"
       id="radialGradient13961"
       gradientUnits="userSpaceOnUse"
       gradientTransform="matrix(-0.41353372,0.41393955,-0.41178521,-0.41138022,569.87368,97.057465)"
       cx="621.44629"
       cy="796.50952"
       fx="621.44629"
       fy="796.50952"
       r="31.573921" />
    <filter
       inkscape:collect="always"
       id="filter4066"
       x="-0.012141538"
       y="-0.011860112"
       width="1.0242831"
       height="1.0237202">
      <feGaussianBlur
         inkscape:collect="always"
         stdDeviation="0.3194633"
         id="feGaussianBlur4068" />
    </filter>
    <linearGradient
       id="linearGradient25063">
      <stop
         id="stop25065"
         offset="0"
         style="stop-color:#11efff;stop-opacity:1;" />
      <stop
         style="stop-color:#000000;stop-opacity:0.39491338;"
         offset="0.4569231"
         id="stop25067" />
      <stop
         style="stop-color:#000000;stop-opacity:1;"
         offset="0.79409206"
         id="stop25069" />
      <stop
         id="stop25071"
         offset="1"
         style="stop-color:#000000;stop-opacity:1;" />
    </linearGradient>
    <radialGradient
       inkscape:collect="always"
       xlink:href="#linearGradient25063"
       id="radialGradient13959"
       gradientUnits="userSpaceOnUse"
       gradientTransform="matrix(-0.840394,0.8439202,-0.8143877,-0.8499287,1799.7216,930.29079)"
       cx="628.49878"
       cy="789.59467"
       fx="639.94617"
       fy="777.53802"
       r="31.573921" />
    <filter
       inkscape:collect="always"
       id="filter25003"
       x="-0.048566153"
       y="-0.04744045"
       width="1.0971323"
       height="1.0948809">
      <feGaussianBlur
         inkscape:collect="always"
         stdDeviation="1.2778532"
         id="feGaussianBlur25005" />
    </filter>
    <linearGradient
       gradientTransform="translate(287,-83)"
       x1="112.49854"
       y1="6.1372099"
       x2="112.49853"
       y2="129.3468"
       id="path1082_2_"
       gradientUnits="userSpaceOnUse">
      <stop
         style="stop-color:#ffffff;stop-opacity:0"
         offset="0"
         id="stop193" />
      <stop
         style="stop-color:#ffffff;stop-opacity:0.27450982;"
         offset="1"
         id="stop195" />
      <midPointStop
         offset="0"
         style="stop-color:#FFFFFF"
         id="midPointStop197" />
      <midPointStop
         offset="0.5"
         style="stop-color:#FFFFFF"
         id="midPointStop199" />
      <midPointStop
         offset="1"
         style="stop-color:#000000"
         id="midPointStop201" />
    </linearGradient>
    <linearGradient
       y2="303.14029"
       x2="606.91248"
       y1="104.50665"
       x1="541.33502"
       gradientTransform="matrix(-0.3937741,0,0,0.393752,978.34969,416.9815)"
       gradientUnits="userSpaceOnUse"
       id="linearGradient2240"
       xlink:href="#path1082_2_"
       inkscape:collect="always" />
  </defs>
  <sodipodi:namedview
     id="base"
     pagecolor="#ffffff"
     bordercolor="#666666"
     borderopacity="1.0"
     inkscape:pageopacity="0.0"
     inkscape:pageshadow="2"
     inkscape:zoom="11.313708"
     inkscape:cx="8.0433397"
     inkscape:cy="15.998291"
     inkscape:current-layer="g14214"
     showgrid="true"
     inkscape:grid-bbox="true"
     inkscape:document-units="px"
     inkscape:window-width="1689"
     inkscape:window-height="1083"
     inkscape:window-x="0"
     inkscape:window-y="0"
     inkscape:showpageshadow="2"
     inkscape:pagecheckerboard="true"
     inkscape:deskcolor="#d1d1d1"
     inkscape:window-maximized="0" />
  <metadata
     id="metadata13970">
    <rdf:RDF>
      <cc:Work
         rdf:about="">
        <dc:format>image/svg+xml</dc:format>
        <dc:type
           rdf:resource="http://purl.org/dc/dcmitype/StillImage" />
      </cc:Work>
    </rdf:RDF>
  </metadata>
  <g
     id="layer1"
     inkscape:label="Layer 1"
     inkscape:groupmode="layer"
     transform="translate(31.142828,-14.57145)">
    <g
       id="g14214"
       inkscape:export-filename="/home/byamato-arch/Documents/Icons/start-here.png"
       inkscape:export-xdpi="90"
       inkscape:export-ydpi="90">
      <rect
         style="opacity:0;fill:none;fill-opacity:1;stroke:none;stroke-width:0.494355;stroke-miterlimit:4;stroke-dasharray:none;stroke-opacity:1"
         id="rect13941"
         width="31.638721"
         height="31.638721"
         x="-30.962196"
         y="14.752083" />
      <ellipse
         transform="matrix(0.46188346,0,0,0.45117757,-305.47749,-325.68191)"
         id="path13943"
         style="opacity:0.5;fill:#333333;fill-opacity:1;stroke:none;stroke-width:2;stroke-miterlimit:4;stroke-dasharray:none;stroke-opacity:1;filter:url(#filter25003)"
         cx="628.58856"
         cy="789.60785"
         rx="31.573921"
         ry="32.323132" />
      <ellipse
         style="opacity:0.749627;fill:url(#radialGradient13959);fill-opacity:1;stroke:none;stroke-width:2;stroke-miterlimit:4;stroke-dasharray:none;stroke-opacity:1;filter:url(#filter4066)"
         id="path13945"
         transform="matrix(0.46188348,0,0,0.45117757,-305.47751,-325.68191)"
         cx="628.58856"
         cy="789.60785"
         rx="31.573921"
         ry="32.323132" />
      <circle
         id="path13947"
         style="opacity:0.75009;fill:url(#radialGradient13961);fill-opacity:1;stroke:none;stroke-width:0.884308;stroke-miterlimit:4;stroke-dasharray:none;stroke-opacity:1"
         cx="-15.142837"
         cy="30.571455"
         r="14.125205" />
      <g
         inkscape:label="Layer 1"
         id="g14201"
         transform="matrix(0.08303618,0,0,0.08303618,-48.1512,11.359469)">
        <g
           id="g2424"
           transform="matrix(1.3473684,0,0,1.3473684,-632.88236,-513.34366)">
          <g
             id="g2210">
            <path
               style="fill:#1793d1;fill-opacity:1;fill-rule:evenodd;stroke:none;stroke-width:1;stroke-linecap:round;stroke-linejoin:round;stroke-miterlimit:10;stroke-dasharray:none;stroke-opacity:1"
               d="M 128,0 C 116.60518,27.937051 109.68663,46.237163 97,73.34375 104.7785,81.588957 114.33826,91.155503 129.84375,102 113.17383,95.140423 101.81018,88.271496 93.3125,81.125 77.076039,115.00489 51.621645,163.24639 0,256 c 40.562707,-23.41756 72.007597,-37.86167 101.3125,-43.375 -1.25376,-5.40435 -1.923505,-11.27752 -1.875,-17.375 l 0.03125,-1.28125 c 0.64379,-25.99398 14.16934,-45.98224 30.1875,-44.625 16.01815,1.35723 28.48754,23.53727 27.84375,49.53125 -0.12127,4.89622 -0.6905,9.60082 -1.65625,13.96875 C 184.83328,218.51691 215.98162,232.89667 256,256 c -7.89193,-14.52962 -14.96051,-27.61983 -21.6875,-40.09375 -10.59609,-8.21269 -21.64301,-18.89743 -44.1875,-30.46875 15.4958,4.02645 26.60184,8.6825 35.25,13.875 C 156.97985,71.972668 151.45422,55.040376 128,0 Z"
               id="path2518"
               transform="matrix(0.7421875,0,0,0.7421875,669.75015,435.62318)" />
            <path
               style="fill:#ffffff;fill-opacity:0.16568;fill-rule:evenodd;stroke:none;stroke-width:36.1;stroke-linecap:butt;stroke-linejoin:round;stroke-miterlimit:10;stroke-opacity:1"
               d="M 818.22607,548.55277 C 777.04464,492.65769 767.49922,447.60796 765.0814,436.85262 c 21.96737,50.6686 21.81733,51.28995 53.14467,111.70015 z"
               id="path2522"
               sodipodi:nodetypes="ccc" />
            <path
               style="fill:url(#linearGradient2240);fill-opacity:1;fill-rule:evenodd;stroke:none;stroke-width:0.714167;stroke-linecap:round;stroke-linejoin:round;stroke-miterlimit:10;stroke-dasharray:none;stroke-opacity:1"
               d="m 765.09805,436.43495 c -1.05641,2.59705 -2.08559,5.1172 -3.06152,7.51465 -1.08115,2.65585 -2.10928,5.19128 -3.13111,7.677 -1.02174,2.48575 -2.03439,4.91156 -3.03833,7.30591 -1.00398,2.39446 -2.01068,4.76169 -3.03833,7.14355 -1.02758,2.38177 -2.06156,4.78845 -3.15429,7.23633 -1.09273,2.44796 -2.23335,4.94504 -3.43262,7.53784 -1.19937,2.59282 -2.45641,5.27815 -3.80371,8.09448 -0.18662,0.39008 -0.41312,0.83402 -0.60303,1.22925 5.75521,6.09563 12.84133,13.14976 24.28345,21.15234 -12.34021,-5.07792 -20.76511,-10.15751 -27.06665,-15.44677 -0.32717,0.66791 -0.61387,1.26431 -0.95093,1.94824 -0.44365,0.90024 -0.97632,1.92315 -1.43799,2.85278 -0.80967,1.66032 -1.65574,3.36576 -2.52807,5.12574 -0.33524,0.66652 -0.62948,1.24283 -0.97413,1.92504 -5.50733,11.05265 -12.33962,24.28304 -21.12915,40.72754 24.09557,-13.57581 50.08533,-33.16242 97.29615,-16.30493 -2.36708,-4.48319 -4.54319,-8.68756 -6.58692,-12.64038 -2.0437,-3.95294 -3.94246,-7.6555 -5.70556,-11.15601 -1.76297,-3.50043 -3.39212,-6.80069 -4.917,-9.92675 -1.52486,-3.12599 -2.93832,-6.0765 -4.26757,-8.90625 -1.32934,-2.8297 -2.58106,-5.55264 -3.75733,-8.16407 -1.17634,-2.6114 -2.29708,-5.11315 -3.36304,-7.58422 -1.06607,-2.4712 -2.08657,-4.89718 -3.08471,-7.30591 -0.99823,-2.4088 -1.97267,-4.81178 -2.94556,-7.23633 -0.34772,-0.86638 -0.69553,-1.7689 -1.0437,-2.64404 -2.66339,-6.25269 -5.3982,-12.73163 -8.55835,-20.15503 z"
               id="path2520" />
          </g>
        </g>
      </g>
      <ellipse
         style="fill:url(#radialGradient13963);fill-opacity:1;stroke:none;stroke-width:0.490381;stroke-miterlimit:4;stroke-dasharray:none;stroke-opacity:1;opacity:0.60187362"
         id="path13951"
         cx="-15.142797"
         cy="23.135077"
         rx="9.3612289"
         ry="6.5541668" />
    </g>
  </g>
</svg>
